<?xml version="1.0" encoding="UTF-8"?>
<svg xmlns="http://www.w3.org/2000/svg" xml:space="preserve" width="87px" height="100px" version="1.1" style="shape-rendering:geometricPrecision; text-rendering:geometricPrecision; image-rendering:optimizeQuality; fill-rule:evenodd; clip-rule:evenodd"
viewBox="0 0 21.52 24.59">
 <defs>
  <style type="text/css">
   <![CDATA[
    .fil0 {
     fill:#D7B96D;
     fill-rule:nonzero
     }
   ]]>
  </style>
 </defs>
  <path class="fil0" d="M19.98 3.07l-2.3 0 0 0.77c0,0.21 -0.04,0.41 -0.12,0.6 -0.08,0.2 -0.2,0.36 -0.34,0.48 -0.13,0.15 -0.29,0.26 -0.48,0.34 -0.19,0.08 -0.39,0.12 -0.6,0.12 -0.21,0 -0.41,-0.04 -0.6,-0.12 -0.19,-0.08 -0.35,-0.19 -0.48,-0.34 -0.14,-0.12 -0.26,-0.28 -0.34,-0.48 -0.08,-0.19 -0.11,-0.39 -0.11,-0.6l0 -0.77 -7.69 0 0 0.77c0,0.21 -0.04,0.41 -0.12,0.6 -0.08,0.2 -0.2,0.36 -0.34,0.48 -0.13,0.15 -0.29,0.26 -0.48,0.34 -0.19,0.08 -0.39,0.12 -0.6,0.12 -0.21,0 -0.41,-0.04 -0.6,-0.12 -0.19,-0.08 -0.35,-0.19 -0.48,-0.34 -0.14,-0.12 -0.26,-0.28 -0.34,-0.48 -0.08,-0.19 -0.12,-0.39 -0.12,-0.6l0 -0.77 -2.3 0c-0.21,0 -0.41,0.05 -0.59,0.12 -0.18,0.09 -0.35,0.2 -0.5,0.34 -0.14,0.13 -0.25,0.29 -0.33,0.48 -0.08,0.19 -0.12,0.39 -0.12,0.6l0 16.91c0,0.21 0.04,0.41 0.12,0.6 0.08,0.19 0.19,0.35 0.33,0.48 0.14,0.15 0.3,0.26 0.49,0.34 0.19,0.08 0.39,0.12 0.6,0.12l18.44 0c0.21,0 0.41,-0.04 0.59,-0.12 0.18,-0.08 0.35,-0.19 0.5,-0.34 0.14,-0.13 0.25,-0.29 0.33,-0.48 0.08,-0.19 0.12,-0.39 0.12,-0.6l0 -16.91c0,-0.21 -0.04,-0.4 -0.12,-0.59 -0.08,-0.18 -0.19,-0.35 -0.33,-0.49 -0.14,-0.14 -0.3,-0.25 -0.48,-0.34 -0.2,-0.07 -0.4,-0.12 -0.61,-0.12zm0 18.45c0,0 0,0 0,0 0,0 0,0 0,0l-18.44 0c0,0 0,0 0,0 0,0 0,0 0,0l0 -13.83 18.44 0 0 13.83zm-14.6 -16.91c0.11,0 0.21,-0.02 0.3,-0.06 0.09,-0.04 0.17,-0.09 0.25,-0.16 0.07,-0.07 0.12,-0.16 0.16,-0.25 0.04,-0.09 0.06,-0.18 0.06,-0.3l0 -3.07c0,-0.11 -0.02,-0.21 -0.06,-0.3 -0.04,-0.09 -0.09,-0.17 -0.16,-0.25 -0.08,-0.07 -0.16,-0.12 -0.25,-0.16 -0.09,-0.04 -0.19,-0.06 -0.3,-0.06 -0.11,0 -0.21,0.02 -0.3,0.06 -0.09,0.04 -0.17,0.09 -0.25,0.16 -0.07,0.08 -0.12,0.16 -0.16,0.25 -0.04,0.09 -0.06,0.19 -0.06,0.3l0 3.07c0,0.12 0.02,0.21 0.06,0.3 0.04,0.09 0.09,0.18 0.16,0.25 0.08,0.07 0.16,0.12 0.25,0.16 0.09,0.04 0.19,0.06 0.3,0.06zm10.76 0c0.11,0 0.21,-0.02 0.3,-0.06 0.09,-0.04 0.17,-0.09 0.25,-0.16 0.07,-0.07 0.12,-0.16 0.16,-0.25 0.04,-0.09 0.06,-0.18 0.06,-0.3l0 -3.07c0,-0.11 -0.02,-0.21 -0.06,-0.3 -0.04,-0.09 -0.09,-0.17 -0.16,-0.25 -0.08,-0.07 -0.16,-0.12 -0.25,-0.16 -0.09,-0.04 -0.19,-0.06 -0.3,-0.06 -0.11,0 -0.21,0.02 -0.3,0.06 -0.09,0.04 -0.17,0.09 -0.25,0.16 -0.07,0.08 -0.12,0.16 -0.16,0.25 -0.04,0.09 -0.06,0.19 -0.06,0.3l0 3.07c0,0.12 0.02,0.21 0.06,0.3 0.04,0.09 0.09,0.18 0.16,0.25 0.08,0.07 0.16,0.12 0.25,0.16 0.09,0.04 0.19,0.06 0.3,0.06zm-3.84 4.61l-7.69 0 0 1.54 6.15 0 0 3.07 -6.15 0 0 1.54 6.15 0 0 3.08 -6.15 0 0 1.53 7.69 0 0 -10.76zm3.07 10.76l1.54 0 0 -10.76 -3.08 0 0 1.54 1.54 0 0 9.22zm4.04 3.66l-17.29 0c-0.21,0 -0.41,-0.04 -0.6,-0.1 -0.18,-0.06 -0.34,-0.15 -0.49,-0.27 -0.14,-0.11 -0.26,-0.25 -0.33,-0.42 -0.09,-0.17 -0.12,-0.35 -0.12,-0.56l0 0.77c0,0.21 0.03,0.41 0.12,0.6 0.07,0.19 0.19,0.35 0.33,0.48 0.13,0.14 0.29,0.25 0.48,0.34 0.2,0.07 0.4,0.11 0.61,0.11l17.29 0c0.2,0 0.4,-0.04 0.59,-0.11 0.18,-0.09 0.34,-0.2 0.49,-0.34 0.14,-0.13 0.26,-0.29 0.33,-0.48 0.09,-0.19 0.12,-0.39 0.12,-0.6l0 -0.77c0,0.21 -0.03,0.39 -0.12,0.56 -0.07,0.17 -0.19,0.31 -0.33,0.42 -0.13,0.12 -0.29,0.21 -0.48,0.27 -0.2,0.06 -0.4,0.1 -0.6,0.1z"/>
</svg>
