<?xml version="1.0" encoding="UTF-8"?>
<!DOCTYPE svg PUBLIC "-//W3C//DTD SVG 1.1//EN" "http://www.w3.org/Graphics/SVG/1.1/DTD/svg11.dtd">
<!-- Creator: CorelDRAW -->
<svg xmlns="http://www.w3.org/2000/svg" xml:space="preserve" width="1964px" height="545px" version="1.1" style="shape-rendering:geometricPrecision; text-rendering:geometricPrecision; image-rendering:optimizeQuality; fill-rule:evenodd; clip-rule:evenodd"
viewBox="0 0 1938.69 537.91"
 xmlns:xlink="http://www.w3.org/1999/xlink"
 xmlns:xodm="http://www.corel.com/coreldraw/odm/2003">
 <defs>
  <style type="text/css">
   <![CDATA[
    .str1 {stroke:#D5B876;stroke-width:2.33;stroke-miterlimit:2.61313}
    .str0 {stroke:#8B7342;stroke-width:2.33;stroke-miterlimit:2.61313}
    .fil1 {fill:#8A7344}
    .fil3 {fill:#D7B96D}
    .fil0 {fill:#8D743A;fill-rule:nonzero}
    .fil2 {fill:#D7B96D;fill-rule:nonzero}
   ]]>
  </style>
 </defs>
 <g id="Слой_x0020_1">
  <metadata id="CorelCorpID_0Corel-Layer"/>
  <g id="_2829042209280">
   <path class="fil0" d="M251.84 447.36l0 2.72 -102.28 0 0 -12.91c7.56,-2 12.45,-3.94 14.65,-5.88 2.28,-2.01 3.82,-4.75 4.75,-8.37 0.87,-3.61 1.34,-10.9 1.34,-22l0 -78.6 -79.23 0 0 -2.72 88.56 0 0 78.59c0,11.11 -0.47,18.4 -1.34,22.01 -0.94,3.61 -2.47,6.35 -4.75,8.36 -2.21,1.94 -7.09,3.88 -14.65,5.89l0 12.91 92.95 0zm-148.96 0l0 2.72 -102.88 0 0 -12.91c4.88,-1.34 8.7,-2.74 11.5,-4.21 2.81,-1.54 4.89,-3.61 6.23,-6.29 1.4,-2.67 2.27,-6.09 2.67,-10.17 0.4,-4.14 0.6,-9.36 0.6,-15.58l0 -168.97c0,-6.15 -0.2,-11.3 -0.53,-15.45 -0.27,-4.21 -1.14,-7.55 -2.54,-10.23 -1.34,-2.61 -3.41,-4.68 -6.22,-6.36 -2.81,-1.6 -6.69,-3.07 -11.71,-4.41l0 -12.91 9.33 0 0 10.18c5.01,1.34 8.89,2.81 11.7,4.42 2.81,1.67 4.89,3.74 6.22,6.35 1.41,2.68 2.28,6.02 2.55,10.24 0.33,4.15 0.53,9.29 0.53,15.45l0 168.96c0,6.22 -0.2,11.44 -0.6,15.59 -0.4,4.08 -1.27,7.49 -2.68,10.16 -1.33,2.68 -3.41,4.75 -6.22,6.29 -2.81,1.47 -6.62,2.88 -11.5,4.22l0 12.91 93.55 0zm67.42 -152.45l0 -62.75c0,-9.9 -0.4,-16.79 -1.27,-20.67 -0.87,-3.88 -2.54,-6.96 -5.08,-9.43 -2.55,-2.41 -7.36,-4.55 -14.39,-6.56l0 -12.91 9.33 0 0 10.18c7.03,2.01 11.84,4.15 14.38,6.56 2.55,2.47 4.22,5.55 5.09,9.43 0.87,3.88 1.27,10.77 1.27,20.67l0 65.48 -9.33 0zm212.44 158.32c-19.2,0 -35.78,-3.35 -49.7,-10.1 -13.91,-6.76 -24.75,-17.53 -32.64,-32.31 -7.82,-14.85 -11.7,-33.71 -11.7,-56.59 0,-17.46 2.4,-32.64 7.22,-45.42 4.82,-12.84 11.57,-23.41 20.2,-31.77 8.63,-8.36 18.86,-14.52 30.84,-18.53 2.74,-0.91 5.55,-1.71 8.4,-2.41 -11.58,4.02 -21.51,10.07 -29.91,18.21 -8.63,8.36 -15.39,18.93 -20.2,31.77 -4.82,12.78 -7.23,27.97 -7.23,45.42 0,22.88 3.88,41.74 11.71,56.59 7.89,14.78 18.73,25.55 32.64,32.31 13.91,6.76 30.5,10.1 49.7,10.1 11.47,0 22.02,-1.18 31.69,-3.54 -12.1,4.17 -25.75,6.27 -41.02,6.27zm16.6 -23.38c1.3,-0.66 2.52,-1.43 3.67,-2.31 4.62,-3.54 8.36,-8.63 11.17,-15.25 2.81,-6.69 4.82,-14.72 5.95,-24.01 1.21,-9.37 1.81,-19.87 1.81,-31.51 0,-28.03 -3.14,-49.03 -9.3,-62.94 -6.22,-13.91 -15.38,-20.87 -27.56,-20.87 -1.62,0 -3.19,0.09 -4.69,0.28 4.04,-2.01 8.71,-3.01 14.02,-3.01 12.18,0 21.34,6.96 27.56,20.87 6.15,13.92 9.3,34.92 9.3,62.95 0,11.63 -0.6,22.14 -1.81,31.5 -1.14,9.3 -3.14,17.32 -5.95,24.01 -2.81,6.63 -6.56,11.71 -11.17,15.26 -3.62,2.77 -7.97,4.44 -13,5.03zm199.71 -153.45c7.24,-7.24 14.64,-12.71 22.15,-16.42 5.19,-2.54 10.59,-4.43 16.21,-5.67 -2.33,0.86 -4.62,1.84 -6.88,2.95 -10.03,4.95 -19.86,13.04 -29.36,24.28l-2.54 -0.54 0.42 -4.6zm80.01 30.09l0 2.72 -35.51 0c-2.21,-7.62 -5.09,-13.44 -8.7,-17.46 -3.61,-4.08 -8.43,-6.08 -14.38,-6.08l-0.35 0 0.11 -0.05c3.48,-1.81 6.69,-2.68 9.57,-2.68 5.95,0 10.76,2.01 14.38,6.09 3.61,4.01 6.49,9.83 8.69,17.46l26.19 0zm-66.28 140.87l0 2.72 -96.59 0 0 -12.91c6.28,-1.74 10.63,-3.94 13.04,-6.69 2.41,-2.74 4.01,-6.48 4.88,-11.17 0.87,-4.68 1.27,-13.24 1.27,-25.68l0 -80.54c0,-9.63 -0.13,-16.79 -0.46,-21.47 -0.34,-4.62 -1.14,-8.36 -2.34,-11.17 -1.28,-2.81 -3.15,-5.08 -5.69,-6.82 -2.54,-1.81 -6.96,-3.35 -13.24,-4.62l0 -13.31 9.32 -0.28 0 10.86c6.29,1.28 10.71,2.81 13.25,4.62 2.54,1.74 4.41,4.01 5.68,6.82 1.21,2.81 2.01,6.56 2.34,11.17 0.34,4.69 0.47,11.84 0.47,21.48l0 80.53c0,12.44 -0.4,21 -1.27,25.69 -0.87,4.68 -2.47,8.43 -4.88,11.17 -2.41,2.74 -6.76,4.95 -13.05,6.69l0 12.91 87.27 0zm177.79 5.87c-19.2,0 -35.79,-3.35 -49.7,-10.1 -13.91,-6.76 -24.75,-17.53 -32.64,-32.31 -7.83,-14.85 -11.71,-33.71 -11.71,-56.59 0,-17.46 2.41,-32.64 7.23,-45.42 4.81,-12.84 11.57,-23.41 20.2,-31.77 8.63,-8.36 18.86,-14.52 30.83,-18.53 2.75,-0.91 5.55,-1.71 8.41,-2.41 -11.58,4.02 -21.51,10.07 -29.92,18.21 -8.62,8.36 -15.38,18.93 -20.2,31.77 -4.81,12.78 -7.22,27.97 -7.22,45.42 0,22.88 3.88,41.74 11.71,56.59 7.89,14.78 18.73,25.55 32.64,32.31 13.91,6.76 30.5,10.1 49.7,10.1 11.46,0 22.02,-1.18 31.69,-3.54 -12.1,4.17 -25.75,6.27 -41.02,6.27zm16.6 -23.38c1.3,-0.66 2.52,-1.43 3.67,-2.31 4.61,-3.54 8.36,-8.63 11.17,-15.25 2.81,-6.69 4.81,-14.72 5.95,-24.01 1.2,-9.37 1.81,-19.87 1.81,-31.51 0,-28.03 -3.15,-49.03 -9.3,-62.94 -6.22,-13.91 -15.39,-20.87 -27.56,-20.87 -1.62,0 -3.19,0.09 -4.69,0.28 4.04,-2.01 8.71,-3.01 14.02,-3.01 12.17,0 21.34,6.96 27.56,20.87 6.15,13.92 9.29,34.92 9.29,62.95 0,11.63 -0.6,22.14 -1.8,31.5 -1.14,9.3 -3.15,17.32 -5.95,24.01 -2.81,6.63 -6.56,11.71 -11.17,15.26 -3.62,2.77 -7.97,4.44 -13,5.03zm209.75 17.51l0 2.72 -96.05 0 0 -12.91c3.95,-0.93 7.02,-2 9.23,-3.28 2.21,-1.2 3.95,-2.67 5.15,-4.28 1.27,-1.67 2.34,-3.74 3.28,-6.28 0.87,-2.55 1.47,-6.09 1.74,-10.57 0.27,-4.48 0.4,-10.97 0.4,-19.33l0 -152.85c0,-11.23 -0.07,-19.46 -0.27,-24.75 -0.2,-5.35 -0.6,-9.76 -1.2,-13.37 -0.6,-3.55 -1.54,-6.42 -2.94,-8.63 -1.34,-2.14 -3.28,-3.88 -5.76,-5.15 -2.47,-1.34 -6.49,-2.48 -11.97,-3.55l0 -12.91 9.33 -0.47 0 10.66c5.48,1.07 9.5,2.2 11.97,3.54 2.48,1.27 4.42,3.01 5.75,5.15 1.41,2.21 2.34,5.09 2.95,8.63 0.6,3.61 1,8.03 1.2,13.38 0.2,5.28 0.27,13.51 0.27,24.75l0 152.84c0,8.36 -0.14,14.85 -0.4,19.33 -0.27,4.48 -0.87,8.03 -1.74,10.57 -0.94,2.54 -2.01,4.62 -3.28,6.29 -1.2,1.6 -2.94,3.07 -5.15,4.28 -2.21,1.27 -5.28,2.34 -9.23,3.28l0 12.91 86.72 0zm125.82 5.87c-19.19,0 -35.78,-3.35 -49.7,-10.1 -13.91,-6.76 -24.75,-17.53 -32.64,-32.31 -7.82,-14.85 -11.7,-33.71 -11.7,-56.59 0,-17.46 2.41,-32.64 7.22,-45.42 4.82,-12.84 11.57,-23.41 20.2,-31.77 8.63,-8.36 18.86,-14.52 30.84,-18.53 2.75,-0.91 5.55,-1.71 8.4,-2.41 -11.58,4.02 -21.5,10.07 -29.91,18.21 -8.63,8.36 -15.39,18.93 -20.2,31.77 -4.82,12.78 -7.23,27.97 -7.23,45.42 0,22.88 3.89,41.74 11.71,56.59 7.89,14.78 18.73,25.55 32.64,32.31 13.92,6.76 30.5,10.1 49.7,10.1 11.47,0 22.02,-1.18 31.7,-3.54 -12.11,4.17 -25.76,6.27 -41.03,6.27zm16.6 -23.38c1.3,-0.66 2.52,-1.43 3.67,-2.31 4.62,-3.54 8.36,-8.63 11.17,-15.25 2.81,-6.69 4.82,-14.72 5.96,-24.01 1.2,-9.37 1.8,-19.87 1.8,-31.51 0,-28.03 -3.14,-49.03 -9.3,-62.94 -6.22,-13.91 -15.38,-20.87 -27.56,-20.87 -1.62,0 -3.18,0.09 -4.69,0.28 4.04,-2.01 8.71,-3.01 14.02,-3.01 12.18,0 21.34,6.96 27.56,20.87 6.15,13.92 9.3,34.92 9.3,62.95 0,11.63 -0.6,22.14 -1.81,31.5 -1.13,9.3 -3.14,17.32 -5.95,24.01 -2.81,6.63 -6.55,11.71 -11.17,15.26 -3.62,2.77 -7.97,4.44 -13,5.03zm306.35 -147.93l-23.42 -2.57c-0.51,-0.59 -1.03,-1.16 -1.57,-1.69l0.8 -2.14 24.19 2.65 0 3.75zm-62.92 99.68c-11.19,3.97 -24.59,5.94 -40.16,5.94 -10.23,0 -19.02,-0.71 -26.33,-2.17 1.13,-1.37 2.43,-2.71 3.88,-4.03 8.23,2.34 18.87,3.47 31.78,3.47 11.46,0 21.74,-1.06 30.83,-3.21zm12 148.96c-14.41,4.87 -31.35,7.28 -50.75,7.35 -14.79,-0.07 -28.16,-0.67 -40.2,-2.01 -12.04,-1.27 -22.28,-3.68 -30.78,-7.16 -8.49,-3.41 -15.04,-8.16 -19.73,-14.18 -4.61,-6.02 -6.95,-13.64 -6.95,-22.94 0,-7.42 2.4,-14.31 7.09,-20.6 4.68,-6.22 11.3,-11.57 19.8,-16.05 -5.49,-3.88 -9.5,-8.43 -11.98,-13.52 -2.47,-5.08 -3.74,-11.37 -3.74,-18.79 0,-6.16 1.27,-11.91 3.88,-17.26 2.54,-5.35 5.88,-10.23 10.16,-14.58 4.22,-4.42 9.77,-9.17 16.53,-14.45 -10.17,-5.75 -17.86,-13.25 -23.08,-22.61 -5.22,-9.36 -7.83,-20.27 -7.83,-32.84 0,-12.11 2.14,-22.54 6.56,-31.24 4.35,-8.7 10.37,-15.78 17.99,-21.27 7.69,-5.49 16.66,-9.5 27.09,-12.04l0.66 -0.16c-6.83,2.41 -12.95,5.57 -18.42,9.47 -7.63,5.49 -13.65,12.58 -17.99,21.27 -4.42,8.7 -6.56,19.13 -6.56,31.24 0,12.58 2.61,23.48 7.83,32.84 5.21,9.37 12.91,16.86 23.07,22.61 -6.75,5.29 -12.3,10.04 -16.52,14.45 -4.28,4.35 -7.62,9.23 -10.17,14.58 -2.6,5.35 -3.88,11.11 -3.88,17.26 0,7.43 1.28,13.71 3.75,18.8 2.48,5.08 6.49,9.63 11.97,13.51 -8.49,4.48 -15.11,9.83 -19.8,16.05 -4.68,6.29 -7.09,13.18 -7.09,20.6 0,9.3 2.34,16.93 6.96,22.95 4.68,6.02 11.24,10.77 19.73,14.18 8.5,3.48 18.73,5.88 30.77,7.15 12.04,1.34 25.42,1.95 40.2,2.01 15.37,-0.05 29.19,-1.57 41.43,-4.62zm-40.55 -166c3.42,-1.86 6.3,-4.64 8.66,-8.32 4.75,-7.5 7.16,-18.87 7.16,-34.12 0,-16.05 -2.35,-28.29 -6.96,-36.72 -4.62,-8.43 -11.71,-12.64 -21.27,-12.64 -1.18,0 -2.32,0.05 -3.43,0.17 3.62,-1.93 7.87,-2.9 12.75,-2.9 9.57,0 16.66,4.22 21.28,12.64 4.61,8.43 6.95,20.67 6.95,36.73 0,15.25 -2.4,26.62 -7.15,34.11 -4.27,6.67 -10.26,10.37 -17.99,11.05zm19.2 147.9c2.62,-1.02 4.99,-2.22 7.12,-3.58 8.56,-5.49 12.84,-13.18 12.84,-23.15 0,-4.41 -0.8,-8.22 -2.34,-11.37 -1.61,-3.14 -4.68,-5.75 -9.23,-7.82 -4.55,-2.08 -11.04,-3.15 -19.4,-3.15l-33.71 0c-6.56,0 -12.11,-0.12 -16.67,-0.35 1.13,-1.07 2.35,-2.1 3.65,-3.11 5.36,0.47 12.78,0.74 22.35,0.74l33.71 0c8.36,0 14.85,1.07 19.4,3.14 4.54,2.07 7.62,4.68 9.23,7.83 1.54,3.14 2.34,6.95 2.34,11.37 0,9.97 -4.28,17.66 -12.84,23.14 -4.43,2.84 -9.91,4.94 -16.45,6.31zm91.26 -75.29c6.43,-1.74 10.84,-3.94 13.25,-6.69 2.41,-2.74 4.01,-6.48 4.88,-11.17 0.87,-4.68 1.27,-13.24 1.27,-25.68l0 -91.11c0,-6.42 -0.27,-11.57 -0.87,-15.52 -0.6,-3.87 -1.67,-7.02 -3.34,-9.36 -1.61,-2.34 -3.81,-4.15 -6.62,-5.42 -2.81,-1.2 -6.49,-2.27 -10.91,-3.21l0 -13.31 9.33 -0.28 0 10.86c4.42,0.94 8.09,2.01 10.9,3.22 2.81,1.27 5.02,3.07 6.63,5.41 1.67,2.35 2.74,5.49 3.34,9.37 0.6,3.95 0.87,9.1 0.87,15.52l0 91.1c0,12.44 -0.4,21 -1.27,25.69 -0.87,4.68 -2.48,8.43 -4.88,11.17 -2.41,2.74 -6.83,4.95 -13.25,6.69l0 12.91 86.33 0 0 2.72 -95.66 0 0 -12.91zm210.92 -7.6c1.93,-0.93 3.64,-2.05 5.14,-3.37 5.08,-4.48 7.56,-10.97 7.56,-19.39 0,-5.42 -1.14,-9.97 -3.42,-13.79 -2.27,-3.74 -6.08,-7.35 -11.37,-10.83 -5.28,-3.48 -14.31,-8.03 -27.15,-13.65 -7.16,-3.14 -13.92,-6.55 -20.27,-10.36 -6.35,-3.82 -11.84,-8.1 -16.59,-12.85 -4.68,-4.75 -8.43,-10.1 -11.17,-15.98 -2.74,-5.89 -4.08,-12.38 -4.08,-19.6 0,-11.71 3.41,-21.94 10.17,-30.57 6.82,-8.63 16.52,-15.19 29.09,-19.8 3.43,-1.23 6.99,-2.3 10.68,-3.2l-1.35 0.47c-12.57,4.62 -22.27,11.17 -29.1,19.8 -6.75,8.63 -10.16,18.87 -10.16,30.57 0,7.23 1.33,13.71 4.08,19.6 2.74,5.89 6.49,11.24 11.17,15.99 4.75,4.75 10.23,9.03 16.59,12.84 6.35,3.81 13.11,7.22 20.26,10.37 12.85,5.62 21.88,10.17 27.16,13.64 5.29,3.48 9.1,7.09 11.37,10.84 2.28,3.81 3.41,8.36 3.41,13.78 0,8.43 -2.47,14.92 -7.55,19.4 -3.6,3.16 -8.43,5.19 -14.47,6.09zm64.6 -127.83l0 2.72 -25.82 0c-3.01,-8.36 -6.35,-14.78 -9.9,-19.39 -3.61,-4.55 -7.56,-7.76 -11.84,-9.5 -4.34,-1.74 -9.49,-2.61 -15.51,-2.61 -2.46,0 -4.78,0.16 -6.94,0.47 4.46,-2.13 9.87,-3.2 16.26,-3.2 6.02,0 11.17,0.87 15.52,2.61 4.28,1.74 8.23,4.95 11.84,9.5 3.55,4.61 6.89,11.04 9.9,19.4l16.49 0zm-36.98 145.33c-2.73,0.97 -5.58,1.82 -8.57,2.54 -9.83,2.41 -20.73,3.62 -32.57,3.62 -21.61,0 -45.56,-3.08 -71.98,-9.23l0 -46.83 9.33 0 0 44.1c26.42,6.15 50.37,9.23 71.97,9.23 11.54,0 22.18,-1.14 31.82,-3.43zm171.24 1.59c-8.32,3.03 -17.1,4.57 -26.23,4.57 -19.46,0 -34.05,-5.29 -43.61,-15.79 -9.63,-10.5 -14.38,-26.42 -14.38,-47.69l0 -109.57 -24.55 0 0 -13.51c3.53,-0.59 6.63,-1.29 9.33,-2.12l0 12.91 24.54 0 0 109.56c0,21.27 4.75,37.19 14.39,47.69 9.56,10.51 24.14,15.79 43.61,15.79 5.78,0 11.42,-0.62 16.9,-1.84zm-95.85 -185.39c1.83,-0.75 3.41,-1.58 4.74,-2.49 3.81,-2.6 6.75,-6.08 8.83,-10.5 2.07,-4.35 3.74,-10.1 5.01,-17.12 1.21,-7.09 2.14,-15.85 2.81,-26.49l9.15 0c-0.65,9.42 -1.53,17.29 -2.63,23.76 -1.27,7.03 -2.94,12.78 -5.02,17.13 -2.07,4.41 -5.01,7.89 -8.83,10.5 -3.21,2.2 -7.86,3.92 -14.06,5.21zm124.07 14.19l0 2.72 -46.53 0 0 -2.72 46.53 0zm-18.39 141.2c0.86,-0.39 1.73,-0.82 2.6,-1.29 3.21,-1.74 6.63,-4.14 10.1,-7.29l2.14 2.84c-0.99,0.64 -1.96,1.21 -2.91,1.73 -3.14,1.67 -6.22,2.87 -9.1,3.47 -0.9,0.22 -1.85,0.39 -2.83,0.54z"/>
   <path class="fil1 str0" d="M1498.38 183.15l4.12 -5.95 -132.59 -94.34 2.49 -3.6 137.1 97.55 -6.62 9.54 -4.5 -3.2zm26.93 -13.53c0.54,0 1.07,0.02 1.6,0.04 -4.16,0.67 -8.07,2.1 -11.58,4.15l-2.51 -1.8c3.86,-1.54 8.08,-2.39 12.49,-2.39zm19.24 1.9l209.5 -163.54 29.35 -5.98 -0.54 1.14 -21.82 4.45 -212.43 165.83c-1.3,-0.72 -2.66,-1.35 -4.06,-1.9zm-13.83 65.16c-1.76,0.29 -3.57,0.44 -5.41,0.44 -18.63,0 -33.74,-15.11 -33.74,-33.75 0,-3.92 0.67,-7.69 1.9,-11.19l-142.75 -101.57 -15.89 -25.14 8.33 1.72 14.56 23.03 142.75 101.56c-1.24,3.51 -1.91,7.27 -1.91,11.2 0,18.1 14.26,32.87 32.16,33.7zm-2.76 -48.54c7.28,1.26 12.81,7.6 12.81,15.23 0,7.03 -4.69,12.96 -11.11,14.83 0.86,0.15 1.75,0.23 2.65,0.23 8.54,0 15.46,-6.92 15.46,-15.45 0,-8.54 -6.92,-15.46 -15.46,-15.46 -1.51,0 -2.97,0.22 -4.35,0.62zm234.39 -160.05l-6.85 -8.78 4.54 -3.54 9.31 11.93 -205.95 160.77 -2.46 -3.15 201.41 -157.23z"/>
   <path class="fil2" d="M240.36 398.19c0,10.04 0.47,16.93 1.27,20.67 0.88,3.68 2.61,6.82 5.22,9.3 2.61,2.47 7.36,4.55 14.32,6.29l0 12.91 -102.28 0 0 -12.91c7.56,-2.01 12.44,-3.95 14.65,-5.89 2.28,-2.01 3.81,-4.75 4.75,-8.36 0.87,-3.61 1.34,-10.9 1.34,-22.01l0 -78.59 -88.56 0 0 78.59c0,4.55 0.13,8.77 0.4,12.71 0.27,3.95 0.73,7.16 1.54,9.63 0.8,2.48 1.94,4.55 3.41,6.22 1.54,1.74 3.61,3.21 6.22,4.42 2.61,1.27 5.82,2.34 9.56,3.28l0 12.91 -102.87 0 0 -12.91c4.88,-1.34 8.69,-2.75 11.5,-4.22 2.81,-1.54 4.89,-3.61 6.22,-6.29 1.41,-2.67 2.28,-6.08 2.68,-10.16 0.4,-4.15 0.6,-9.37 0.6,-15.59l0 -168.96c0,-6.16 -0.2,-11.3 -0.53,-15.45 -0.27,-4.22 -1.14,-7.56 -2.55,-10.24 -1.33,-2.61 -3.41,-4.68 -6.22,-6.35 -2.81,-1.61 -6.69,-3.08 -11.7,-4.42l0 -12.91 102.87 0 0 12.91c-6.89,2.01 -11.63,4.15 -14.18,6.49 -2.54,2.34 -4.34,5.49 -5.41,9.3 -1.01,3.88 -1.54,10.84 -1.54,20.87l0 65.48 88.56 0 0 -65.48c0,-9.9 -0.4,-16.79 -1.27,-20.67 -0.87,-3.88 -2.54,-6.96 -5.09,-9.43 -2.54,-2.41 -7.35,-4.55 -14.38,-6.56l0 -12.91 102.28 0 0 12.91c-5.75,1.61 -9.97,3.28 -12.58,5.02 -2.61,1.74 -4.48,4.01 -5.55,6.76 -1.14,2.74 -1.81,5.82 -2.14,9.23 -0.34,3.41 -0.54,8.63 -0.54,15.65l0 168.76zm151.71 52.31c-19.2,0 -35.79,-3.34 -49.7,-10.1 -13.91,-6.76 -24.75,-17.53 -32.64,-32.31 -7.83,-14.85 -11.71,-33.71 -11.71,-56.59 0,-17.45 2.41,-32.64 7.23,-45.42 4.81,-12.84 11.57,-23.41 20.2,-31.77 8.63,-8.36 18.86,-14.51 30.83,-18.53 11.98,-3.94 24.95,-5.95 38.93,-5.95 31.58,0 55.46,8.3 71.51,24.95 16.05,16.66 24.08,41.07 24.08,73.25 0,22.67 -3.95,41.73 -11.91,57.12 -7.96,15.32 -19.33,26.76 -34.11,34.18 -14.78,7.42 -32.31,11.17 -52.71,11.17zm-34.52 -103.28c0,27.69 3.15,48.43 9.3,62.21 6.22,13.78 15.59,20.67 28.16,20.67 6.89,0 12.71,-1.74 17.33,-5.28 4.61,-3.55 8.36,-8.63 11.17,-15.26 2.81,-6.69 4.81,-14.71 5.95,-24.01 1.21,-9.36 1.81,-19.87 1.81,-31.5 0,-28.03 -3.15,-49.03 -9.3,-62.95 -6.22,-13.91 -15.38,-20.87 -27.56,-20.87 -8.9,0 -15.99,2.81 -21.34,8.43 -5.35,5.55 -9.29,13.98 -11.77,25.22 -2.47,11.23 -3.75,25.68 -3.75,43.34zm241.08 -66.22l2.54 0.54c9.5,-11.24 19.33,-19.33 29.36,-24.28 10.1,-4.95 21.01,-7.43 32.78,-7.43 7.96,0 16.32,0.87 25.08,2.54l0 54.12 -35.52 0c-2.2,-7.63 -5.08,-13.45 -8.69,-17.46 -3.62,-4.08 -8.43,-6.09 -14.38,-6.09 -2.88,0 -6.09,0.87 -9.57,2.68 -3.41,1.74 -6.62,4.21 -9.56,7.42 -2.95,3.21 -5.02,6.49 -6.29,9.77 -1.21,3.34 -2.08,6.69 -2.41,10.1 -0.4,3.41 -0.6,8.49 -0.6,15.32l0 62.47c0,12.44 0.47,21.14 1.34,26.09 0.93,4.95 2.74,8.83 5.48,11.64 2.74,2.81 7.42,4.81 13.91,6.02l0 12.91 -96.59 0 0 -12.91c6.29,-1.74 10.64,-3.95 13.05,-6.69 2.41,-2.74 4.01,-6.49 4.88,-11.17 0.87,-4.69 1.27,-13.25 1.27,-25.69l0 -80.53c0,-9.64 -0.13,-16.79 -0.47,-21.48 -0.33,-4.61 -1.13,-8.36 -2.34,-11.17 -1.27,-2.81 -3.14,-5.08 -5.68,-6.82 -2.54,-1.81 -6.96,-3.34 -13.25,-4.62l0 -13.31 53.72 -1.6 24.68 0 -2.74 29.63zm201.27 169.5c-19.2,0 -35.79,-3.34 -49.7,-10.1 -13.91,-6.76 -24.75,-17.53 -32.64,-32.31 -7.83,-14.85 -11.71,-33.71 -11.71,-56.59 0,-17.45 2.41,-32.64 7.22,-45.42 4.82,-12.84 11.58,-23.41 20.2,-31.77 8.63,-8.36 18.87,-14.51 30.84,-18.53 11.98,-3.94 24.95,-5.95 38.93,-5.95 31.57,0 55.45,8.3 71.51,24.95 16.05,16.66 24.08,41.07 24.08,73.25 0,22.67 -3.95,41.73 -11.91,57.12 -7.96,15.32 -19.33,26.76 -34.11,34.18 -14.79,7.42 -32.31,11.17 -52.71,11.17zm-34.52 -103.28c0,27.69 3.15,48.43 9.3,62.21 6.22,13.78 15.58,20.67 28.16,20.67 6.89,0 12.71,-1.74 17.33,-5.28 4.61,-3.55 8.36,-8.63 11.17,-15.26 2.8,-6.69 4.81,-14.71 5.95,-24.01 1.2,-9.36 1.8,-19.87 1.8,-31.5 0,-28.03 -3.14,-49.03 -9.29,-62.95 -6.22,-13.91 -15.39,-20.87 -27.56,-20.87 -8.9,0 -15.99,2.81 -21.34,8.43 -5.35,5.55 -9.3,13.98 -11.77,25.22 -2.48,11.23 -3.75,25.68 -3.75,43.34zm241.27 43.48c0,12.44 0.4,21 1.14,25.69 0.8,4.68 2.41,8.49 4.82,11.3 2.4,2.81 6.95,5.02 13.64,6.76l0 12.91 -96.05 0 0 -12.91c3.95,-0.94 7.02,-2.01 9.23,-3.28 2.21,-1.21 3.95,-2.68 5.15,-4.28 1.27,-1.67 2.34,-3.75 3.28,-6.29 0.87,-2.54 1.47,-6.09 1.74,-10.57 0.26,-4.48 0.4,-10.97 0.4,-19.33l0 -152.84c0,-11.24 -0.07,-19.47 -0.27,-24.75 -0.2,-5.35 -0.6,-9.77 -1.2,-13.38 -0.61,-3.54 -1.54,-6.42 -2.95,-8.63 -1.33,-2.14 -3.27,-3.88 -5.75,-5.15 -2.47,-1.34 -6.49,-2.47 -11.97,-3.54l0 -12.91 54.24 -2.75 24.55 0 0 223.95zm145.42 59.8c-19.2,0 -35.78,-3.34 -49.7,-10.1 -13.91,-6.76 -24.75,-17.53 -32.64,-32.31 -7.82,-14.85 -11.71,-33.71 -11.71,-56.59 0,-17.45 2.41,-32.64 7.23,-45.42 4.81,-12.84 11.57,-23.41 20.2,-31.77 8.63,-8.36 18.86,-14.51 30.84,-18.53 11.97,-3.94 24.95,-5.95 38.93,-5.95 31.57,0 55.45,8.3 71.5,24.95 16.05,16.66 24.08,41.07 24.08,73.25 0,22.67 -3.95,41.73 -11.9,57.12 -7.97,15.32 -19.34,26.76 -34.12,34.18 -14.78,7.42 -32.31,11.17 -52.71,11.17zm-34.51 -103.28c0,27.69 3.14,48.43 9.29,62.21 6.22,13.78 15.59,20.67 28.17,20.67 6.88,0 12.7,-1.74 17.32,-5.28 4.62,-3.55 8.36,-8.63 11.17,-15.26 2.81,-6.69 4.82,-14.71 5.95,-24.01 1.21,-9.36 1.81,-19.87 1.81,-31.5 0,-28.03 -3.15,-49.03 -9.3,-62.95 -6.22,-13.91 -15.38,-20.87 -27.56,-20.87 -8.89,0 -15.98,2.81 -21.34,8.43 -5.35,5.55 -9.29,13.98 -11.77,25.22 -2.47,11.23 -3.74,25.68 -3.74,43.34zm357.46 -68.02l-33.52 -3.68 -0.8 2.14c3.68,3.68 6.69,8.63 9.17,14.98 2.4,6.35 3.61,13.98 3.61,22.81 0,22.74 -6.89,40 -20.67,51.77 -13.78,11.78 -34.12,17.59 -60.87,17.59 -12.91,0 -23.55,-1.13 -31.78,-3.47 -6.48,5.88 -9.76,12.17 -9.76,18.99 0,3.88 0.8,6.89 2.41,9.03 1.67,2.08 4.41,3.68 8.36,4.75 3.95,1.14 9.5,1.67 16.65,1.67l48.63 0c21.81,0 38.13,4.29 48.97,12.78 10.83,8.5 16.25,21.67 16.25,39.6 0,13.91 -3.95,25.95 -11.84,36.05 -7.89,10.04 -19.26,17.73 -33.98,23.01 -14.78,5.29 -32.31,7.9 -52.51,7.96 -14.78,-0.06 -28.16,-0.67 -40.2,-2.01 -12.04,-1.27 -22.27,-3.67 -30.77,-7.15 -8.49,-3.41 -15.05,-8.16 -19.73,-14.18 -4.62,-6.02 -6.96,-13.65 -6.96,-22.95 0,-7.42 2.41,-14.31 7.09,-20.6 4.69,-6.22 11.31,-11.57 19.8,-16.05 -5.48,-3.88 -9.49,-8.43 -11.97,-13.51 -2.47,-5.09 -3.75,-11.37 -3.75,-18.8 0,-6.15 1.28,-11.91 3.88,-17.26 2.55,-5.35 5.89,-10.23 10.17,-14.58 4.22,-4.41 9.77,-9.16 16.52,-14.45 -10.16,-5.75 -17.86,-13.24 -23.07,-22.61 -5.22,-9.36 -7.83,-20.26 -7.83,-32.84 0,-12.11 2.14,-22.54 6.56,-31.24 4.34,-8.69 10.36,-15.78 17.99,-21.27 7.69,-5.48 16.65,-9.49 27.09,-12.04 10.37,-2.54 21.54,-3.81 33.58,-3.81 6.69,0 12.57,0.34 17.66,0.94 5.08,0.67 10.03,1.4 14.85,2.2l70.77 0 0 26.23zm-132.31 36.65c0,16.46 2.34,28.7 6.95,36.72 4.69,8.1 11.98,12.11 21.88,12.11 9.03,0 15.92,-3.75 20.67,-11.17 4.75,-7.49 7.15,-18.86 7.15,-34.11 0,-16.06 -2.34,-28.3 -6.95,-36.73 -4.62,-8.42 -11.71,-12.64 -21.28,-12.64 -9.63,0 -16.78,3.75 -21.47,11.24 -4.61,7.49 -6.95,19.06 -6.95,34.58zm-7.03 144.08c-4.68,3.61 -8.29,7.63 -10.7,11.91 -2.41,4.35 -3.61,9.3 -3.61,14.91 0,9.37 4.08,16.32 12.24,20.87 8.16,4.49 21.07,6.76 38.73,6.76 16.45,0 28.96,-2.74 37.53,-8.23 8.56,-5.48 12.84,-13.17 12.84,-23.14 0,-4.42 -0.8,-8.23 -2.34,-11.37 -1.61,-3.15 -4.69,-5.76 -9.23,-7.83 -4.55,-2.07 -11.04,-3.14 -19.4,-3.14l-33.71 0c-9.57,0 -16.99,-0.27 -22.35,-0.74zm158.33 -25.48c6.42,-1.74 10.84,-3.95 13.25,-6.69 2.4,-2.74 4.01,-6.49 4.88,-11.17 0.87,-4.69 1.27,-13.25 1.27,-25.69l0 -91.1c0,-6.42 -0.27,-11.57 -0.87,-15.52 -0.6,-3.88 -1.67,-7.02 -3.34,-9.37 -1.61,-2.34 -3.82,-4.14 -6.63,-5.41 -2.81,-1.21 -6.48,-2.28 -10.9,-3.22l0 -13.31 53.91 -1.6 24.49 0 0 139.33c0,7.36 0.06,12.98 0.26,16.99 0.2,3.95 0.47,7.02 0.87,9.16 0.4,2.21 1.01,4.08 1.68,5.82 0.73,1.68 1.67,3.28 2.87,4.69 1.14,1.47 2.88,2.74 5.08,3.94 2.21,1.14 5.16,2.21 8.83,3.15l0 12.91 -95.65 0 0 -12.91zm151.71 -40c3.14,11.9 8.09,20.8 14.91,26.75 6.76,5.96 15.86,8.9 27.23,8.9 9.76,0 17.19,-2.21 22.21,-6.62 5.08,-4.48 7.55,-10.97 7.55,-19.4 0,-5.42 -1.13,-9.97 -3.41,-13.78 -2.27,-3.75 -6.08,-7.36 -11.37,-10.84 -5.28,-3.47 -14.31,-8.02 -27.16,-13.64 -7.15,-3.15 -13.91,-6.56 -20.26,-10.37 -6.36,-3.81 -11.84,-8.09 -16.59,-12.84 -4.68,-4.75 -8.43,-10.1 -11.17,-15.99 -2.75,-5.89 -4.08,-12.37 -4.08,-19.6 0,-11.7 3.41,-21.94 10.16,-30.57 6.83,-8.63 16.53,-15.18 29.1,-19.8 12.64,-4.54 27.02,-6.82 43.21,-6.82 9.57,0 18.87,0.4 28.03,1.14 9.16,0.8 21,2.54 35.45,5.15l0 45.62 -25.82 0c-3.01,-8.36 -6.35,-14.79 -9.9,-19.4 -3.61,-4.55 -7.56,-7.76 -11.84,-9.5 -4.35,-1.74 -9.5,-2.61 -15.52,-2.61 -8.63,0 -15.45,1.94 -20.6,5.82 -5.08,3.95 -7.62,9.43 -7.62,16.46 0,5.01 0.93,9.23 2.74,12.77 1.87,3.55 5.08,6.96 9.83,10.3 4.68,3.35 13.78,7.76 27.23,13.38 12.3,5.15 22.27,10.44 29.96,15.99 7.69,5.55 13.58,11.97 17.66,19.2 4.01,7.29 6.09,15.71 6.09,25.41 0,10.57 -2.01,19.67 -5.89,27.29 -3.94,7.7 -9.43,13.99 -16.45,18.93 -7.09,4.95 -15.52,8.7 -25.42,11.11 -9.83,2.4 -20.74,3.61 -32.58,3.61 -21.6,0 -45.55,-3.08 -71.97,-9.23l0 -46.82 26.29 0zm292.97 29.36c-11.5,9.83 -21.94,16.72 -31.37,20.74 -9.36,3.94 -19.33,5.95 -29.76,5.95 -19.47,0 -34.05,-5.28 -43.61,-15.79 -9.64,-10.5 -14.39,-26.42 -14.39,-47.69l0 -109.56 -24.54 0 0 -13.52c8.02,-1.33 13.84,-3.27 17.65,-5.88 3.82,-2.61 6.76,-6.09 8.83,-10.5 2.08,-4.35 3.75,-10.1 5.02,-17.13 1.21,-7.09 2.14,-15.85 2.81,-26.49l46.82 0 0 49.03 55.86 0 0 24.49 -55.86 0 0 88.36c0,14.78 0.74,25.68 2.08,32.71 1.4,7.09 3.68,12.3 6.95,15.58 3.28,3.35 7.29,5.02 12.18,5.02 3.61,0 6.89,-0.33 9.76,-1.01 2.88,-0.6 5.96,-1.8 9.1,-3.47 3.21,-1.74 6.62,-4.15 10.1,-7.29l12.37 16.45z"/>
   <path class="fil3 str1" d="M1372.4 79.26l-6.61 9.54 137.09 97.55 6.62 -9.54 -137.1 -97.55zm159.91 89.97c5.91,0 11.47,1.52 16.3,4.19l212.43 -165.83 29.35 -5.98 -12.86 27.1 -212.52 165.9c0.68,2.67 1.05,5.48 1.05,8.37 0,18.63 -15.11,33.74 -33.75,33.74 -18.64,0 -33.75,-15.11 -33.75,-33.74 0,-3.93 0.67,-7.69 1.91,-11.2l-142.75 -101.56 -15.9 -25.14 29.15 6.01 144.36 102.72c4.99,-2.91 10.79,-4.58 16.98,-4.58zm0 18.29c8.54,0 15.46,6.92 15.46,15.46 0,8.53 -6.92,15.45 -15.46,15.45 -8.54,0 -15.46,-6.92 -15.46,-15.45 0,-8.54 6.92,-15.46 15.46,-15.46zm237.04 -159.82l-9.31 -11.93 -205.95 160.77 9.31 11.93 205.95 -160.77z"/>
  </g>
 </g>
</svg>
