<?xml version="1.0" encoding="UTF-8"?>
<!DOCTYPE svg PUBLIC "-//W3C//DTD SVG 1.1//EN" "http://www.w3.org/Graphics/SVG/1.1/DTD/svg11.dtd">
<!-- Creator: CorelDRAW -->
<svg xmlns="http://www.w3.org/2000/svg" xml:space="preserve" width="466px" height="241px" version="1.1" style="shape-rendering:geometricPrecision; text-rendering:geometricPrecision; image-rendering:optimizeQuality; fill-rule:evenodd; clip-rule:evenodd"
viewBox="0 0 305.95 158.46"
 xmlns:xlink="http://www.w3.org/1999/xlink"
 xmlns:xodm="http://www.corel.com/coreldraw/odm/2003">
 <defs>
  <style type="text/css">
   <![CDATA[
    .str0 {stroke:#303031;stroke-width:1.55;stroke-miterlimit:2.61313}
    .str1 {stroke:#8D969E;stroke-width:1.55;stroke-miterlimit:2.61313}
    .fil0 {fill:#303031}
    .fil1 {fill:#8D969E}
   ]]>
  </style>
 </defs>
 <g id="Слой_x0020_1">
  <metadata id="CorelCorpID_0Corel-Layer"/>
  <path class="fil0 str0" d="M110.4 121.79l2.74 -3.95 -88.18 -62.74 1.66 -2.39 91.17 64.87 -4.4 6.34 -2.99 -2.13zm17.9 -8.99c0.36,0 0.71,0.01 1.06,0.02 -2.76,0.45 -5.36,1.4 -7.69,2.76l-1.68 -1.19c2.57,-1.03 5.38,-1.59 8.31,-1.59zm12.8 1.26l139.31 -108.75 19.52 -3.98 -0.36 0.76 -14.5 2.96 -141.27 110.28c-0.87,-0.48 -1.77,-0.9 -2.7,-1.27zm-9.2 43.33c-1.17,0.19 -2.37,0.29 -3.6,0.29 -12.39,0 -22.44,-10.05 -22.44,-22.44 0,-2.61 0.45,-5.11 1.27,-7.44l-94.93 -67.54 -10.57 -16.72 5.54 1.14 9.68 15.31 94.93 67.55c-0.82,2.33 -1.26,4.83 -1.26,7.44 0,12.04 9.48,21.86 21.38,22.41zm-1.83 -32.28c4.83,0.84 8.51,5.05 8.51,10.13 0,4.67 -3.11,8.62 -7.38,9.87 0.57,0.1 1.16,0.15 1.76,0.15 5.67,0 10.28,-4.6 10.28,-10.28 0,-5.68 -4.61,-10.28 -10.28,-10.28 -1.01,0 -1.98,0.15 -2.89,0.41zm155.86 -106.43l-4.55 -5.84 3.02 -2.35 6.19 7.93 -136.96 106.91 -1.63 -2.09 133.93 -104.56z"/>
  <path class="fil1 str1" d="M26.62 52.71l-4.4 6.34 91.17 64.87 4.4 -6.34 -91.17 -64.87zm106.34 59.83c3.93,0 7.62,1.01 10.84,2.79l141.27 -110.28 19.51 -3.98 -8.55 18.02 -141.33 110.32c0.46,1.78 0.7,3.65 0.7,5.57 0,12.39 -10.05,22.44 -22.44,22.44 -12.4,0 -22.44,-10.05 -22.44,-22.44 0,-2.61 0.44,-5.11 1.26,-7.44l-94.93 -67.55 -10.57 -16.71 19.39 4 96 68.3c3.32,-1.93 7.17,-3.04 11.29,-3.04zm0 12.16c5.67,0 10.28,4.6 10.28,10.28 0,5.68 -4.61,10.28 -10.28,10.28 -5.68,0 -10.28,-4.6 -10.28,-10.28 0,-5.68 4.6,-10.28 10.28,-10.28zm157.63 -106.28l-6.19 -7.93 -136.96 106.91 6.19 7.93 136.96 -106.91z"/>
 </g>
</svg>
