<?xml version="1.0" encoding="UTF-8"?>
<svg xmlns="http://www.w3.org/2000/svg" xml:space="preserve" width="2591px" height="1101px" version="1.1" style="shape-rendering:geometricPrecision; text-rendering:geometricPrecision; image-rendering:optimizeQuality; fill-rule:evenodd; clip-rule:evenodd"
viewBox="0 0 1404.74 597.04">
 <defs>
  <style type="text/css">
   <![CDATA[
    .str0 {stroke:#AAACAE;stroke-width:4.52;stroke-miterlimit:2.61313}
    .fil0 {fill:none;fill-rule:nonzero}
    .fil1 {fill:#D3B776}
    .fil2 {fill:#303031}
   ]]>
  </style>
 </defs>
  <path class="fil0 str0" d="M623.7 217.4l73.18 159.95c3.23,7 5.91,10.47 8.04,10.35 2.13,-0.12 4.32,-2.56 6.58,-7.31l67.21 -143.2c6.28,-13.58 10.84,-22.04 13.58,-25.51 2.74,-3.47 6.27,-5.18 10.72,-5.18 1.64,0 4.26,0.19 7.85,0.55 3.41,0.37 7,0.55 10.66,0.55 4.93,0 10.9,-0.43 18.08,-1.28 3.65,-0.37 6.39,-0.55 8.16,-0.55 4.2,0 6.27,1.65 6.27,4.99 0,2.8 -1.58,4.27 -4.81,4.51 -11.14,0.85 -18.94,4.57 -23.38,11.26 -4.45,6.64 -6.7,17.9 -6.7,33.73l0.19 12.18 4.2 111.06 0.18 7.37c0,16.44 2.86,28.61 8.64,36.53 5.73,7.91 15.23,12.54 28.38,14 3.35,0.49 4.99,2.26 4.99,5.3 0,3.29 -4.02,4.93 -12.12,4.93 -2.37,0 -6.15,-0.36 -11.38,-1.03 -14.49,-1.77 -24.72,-2.62 -30.81,-2.62 -12.48,0 -22.83,0.61 -31.17,1.82 -7.8,1.22 -13.16,1.83 -16.02,1.83 -2.98,0 -4.44,-1.52 -4.44,-4.56 0,-2.32 1.7,-3.96 5.11,-4.94 6.76,-1.88 11.51,-4.93 14.31,-9.07 2.74,-4.2 4.14,-10.35 4.14,-18.57 0,-3.96 -0.06,-6.7 -0.18,-8.4l-5.12 -118.43c-0.12,-3.22 -0.91,-4.81 -2.31,-4.81 -1.83,0 -4.26,3.29 -7.37,9.81l-67.4 142.35 -2.49 5.36c-3.41,7.43 -6.28,11.14 -8.53,11.26 -2.56,0.12 -6.94,-6.45 -13.09,-19.6l-9.07 -18.57 -57.05 -127.44 -1.22 -2.62c-0.49,-0.85 -1.22,-1.28 -2.13,-1.28 -1.89,0 -2.86,2.44 -2.86,7.31l-0.18 5.72 -2.2 90.18 -0.18 7.12 1.58 16.8c3.35,17.54 12.67,28.19 28.01,32.15 5.36,1.34 8.04,3.41 8.04,6.21 0,3.17 -2.07,4.75 -6.27,4.75 -3.23,0 -7.07,-0.3 -11.45,-0.85l-12.73 -1.77c-3.22,-0.42 -7.91,-0.67 -14,-0.67 -10.84,0 -19.36,0.49 -25.45,1.53 -3.9,0.67 -6.88,1.03 -8.95,1.03 -3.71,0 -5.54,-1.58 -5.54,-4.75 0,-2.19 1.4,-3.77 4.26,-4.75 9.2,-3.1 15.89,-8.58 20.09,-16.5 4.2,-7.91 6.34,-18.87 6.34,-32.88l4.75 -117.14 0.54 -11.94c0,-14.3 -3.47,-25.51 -10.47,-33.61 -6.94,-8.15 -16.5,-12.23 -28.62,-12.23 -4.5,0 -6.75,-1.71 -6.75,-5.06 0,-3.47 2.55,-5.17 7.67,-5.17 1.09,0 2.43,0.06 4.14,0.18l10.35 0.73c1.89,0.12 4.32,0.18 7.3,0.18 5.61,0 11.09,-0.36 16.38,-1.09 8.1,-0.98 13.34,-1.46 15.71,-1.46 7.86,0 13.46,3.77 16.81,11.26z"/>
  <path class="fil1" d="M332.11 401.02c51.8,29.72 50.22,-43.54 17.9,-50.23 -88.79,-18.4 -48.48,103.78 -8.44,143.71 63.15,-2.56 121.35,17.62 146.81,87.47 -40.99,-47.8 -78.29,-68.6 -125.96,-68.85 35.41,28.61 79.29,51.48 115.88,71.19 -59.5,-17.27 -103.59,-33.3 -144.41,-69.14 -71.44,10.08 -319.63,143.05 -333.14,47.52 -12.54,-88.64 137.99,-64.52 59.81,2.25 11.07,-22.11 20.85,-48.21 -16.37,-45.27 -34.38,2.72 -36.89,45.48 -12.07,57.06 50.45,23.53 192.77,-68.12 282.81,-79.91 -45.22,-48.01 -65.57,-156.67 11.21,-165.11 91.34,-10.04 66.88,138.13 5.97,69.31z"/>
  <path class="fil1" d="M659.09 550.47c-0.8,16.55 -6.67,31.31 -15.41,45.04 22.22,-2.43 42.85,-7.7 59.44,-19.58 16.6,11.88 36.79,17.15 59.01,19.58 -8.74,-13.73 -14.61,-28.49 -15.41,-45.04 -27.25,7.58 -60.38,7.58 -87.63,0z"/>
  <path class="fil1" d="M637.05 547.88c6.06,-0.4 12.55,-0.13 16.47,2.43 0.36,10.5 -6.35,28.06 -13.38,36.66 -5.56,6.8 -13.8,7.19 -22.6,7.98 10.82,-13.9 18.52,-30.32 19.51,-47.07z"/>
  <path class="fil1" d="M618.3 544c7,0.1 11.54,0.45 15.68,3.51 -1.11,12.07 -9.95,32.18 -23.49,40.93 -5.96,3.85 -13.86,3.79 -21.18,3.84 14.37,-13.81 25.5,-30.6 28.99,-48.28z"/>
  <path class="fil1" d="M595.01 554.07c-57.25,-3.12 -82.12,-52.41 -84.7,-130.61 29.16,33.08 43.77,73.84 65.05,96.9 11.36,12.32 25.48,18.03 38.97,22.15 -6.62,28.2 -19.81,40.84 -39.13,42.6 -28.3,2.58 -46.72,-11.16 -61.34,-34.34 -6.7,-10.61 -16.5,-20.03 -27.83,-30.06 20.28,-0.2 53.52,21.83 77.98,34.8 10.97,5.82 18.61,6.67 23.57,6.65 4.5,-0.89 7.38,-3.23 7.43,-8.09zm-66.94 -6.98c12.05,13.08 26.44,22.96 47.03,24.25 -21.75,5.56 -38.81,-1.26 -47.03,-24.25zm2.01 -65.66c13.75,30.79 33.8,51.86 59.69,63.95 -35.8,-5.23 -54.4,-29.8 -59.69,-63.95z"/>
  <path class="fil1" d="M510.27 484.5c-22.94,-20.73 -30.46,-79.59 -26.87,-165.98 -35.76,50.15 -45.36,161.37 26.87,165.98zm-19.28 -12.41c-13.08,-26.56 -20.82,-57.38 -20.16,-94.93 -6.79,37.79 -7.59,67.11 20.16,94.93z"/>
  <path class="fil1" d="M412.46 386.2c3.48,43.77 15.12,80.9 33,101.99 21.24,24.01 48.98,27.84 78.51,26.08 -19.53,-9.29 -43.73,-21.24 -57.05,-46.18 -14.17,-26.51 -31.66,-54.36 -54.46,-81.89zm85.59 123.56c-31.12,-15.61 -53.54,-40.52 -64.25,-73.64 6.28,37.97 26.27,64.93 64.25,73.64z"/>
  <path class="fil1" d="M448.09 408.1c-14.16,-20.24 -23.89,-47.61 -28.78,-82.78 -3.36,-24.16 5.76,-46.77 -3.09,-83.72 -13.51,25.91 -25.24,55.6 -23.19,91.41 2.13,37.17 25.46,60.09 55.06,75.09zm-19.93 -18.47c-13.89,-27.05 -22.66,-57.73 -21.64,-95.37 -8.45,35.02 -6.05,69.35 21.64,95.37z"/>
  <path class="fil1" d="M505.26 215.51c-4.6,36.75 -28.88,51.84 -38.35,75.45 -12,29.92 -17.95,61.12 -16.46,84.76 -52.5,-56.85 7.68,-129.44 54.81,-160.21zm-62.97 135.41c0.68,-41.95 14.52,-78.43 36.79,-103.9 -32.27,25.74 -47.26,63.67 -36.79,103.9z"/>
  <path class="fil1" d="M490.77 114.61c-7.25,30.76 -29.1,55.66 -38.02,80.5 -10.54,29.3 -13.51,51.05 -12.69,83.73 -60.73,-83.51 4.66,-127.05 50.71,-164.23zm-32 40.13c-19.76,25.71 -28.13,56.02 -29.44,89.19 -18.47,-32.36 0.55,-69.6 29.44,-89.19z"/>
  <path class="fil1" d="M486.3 164.93c-16.18,14.55 -43.35,36.15 -31.36,84.58 34.65,-75.17 91.2,-70.99 129.62,-113.3 -32.75,9.58 -68.81,8.81 -98.26,28.72zm-27.68 59.57c11.28,-27.96 33.91,-52.55 76.97,-71.09 -39.69,7.73 -70.13,28.81 -76.97,71.09z"/>
  <path class="fil1" d="M768.76 547.88c-6.06,-0.4 -12.55,-0.13 -16.47,2.43 -0.36,10.5 6.35,28.06 13.38,36.66 5.55,6.8 13.8,7.19 22.6,7.98 -10.82,-13.9 -18.52,-30.32 -19.51,-47.07z"/>
  <path class="fil1" d="M787.51 544c-7,0.1 -11.54,0.45 -15.69,3.51 1.11,12.07 9.96,32.18 23.5,40.93 5.96,3.85 13.86,3.79 21.17,3.84 -14.37,-13.81 -25.5,-30.6 -28.98,-48.28z"/>
  <path class="fil1" d="M810.79 554.07c57.26,-3.12 82.13,-52.41 84.71,-130.61 -29.17,33.08 -43.78,73.84 -65.05,96.9 -11.36,12.32 -25.48,18.03 -38.97,22.15 6.62,28.2 19.81,40.84 39.13,42.6 28.3,2.58 46.72,-11.16 61.34,-34.34 6.7,-10.61 16.5,-20.03 27.82,-30.06 -20.27,-0.2 -53.51,21.83 -77.97,34.8 -10.97,5.82 -18.61,6.67 -23.57,6.65 -4.5,-0.89 -7.38,-3.23 -7.44,-8.09zm66.95 -6.98c-12.05,13.08 -26.44,22.96 -47.03,24.25 21.75,5.56 38.81,-1.26 47.03,-24.25zm-2.02 -65.66c-13.74,30.79 -33.79,51.86 -59.68,63.95 35.79,-5.23 54.4,-29.8 59.68,-63.95z"/>
  <path class="fil1" d="M895.54 484.5c22.93,-20.73 30.46,-79.59 26.87,-165.98 35.76,50.15 45.36,161.37 -26.87,165.98zm19.28 -12.41c13.08,-26.56 20.82,-57.38 20.16,-94.93 6.79,37.79 7.59,67.11 -20.16,94.93z"/>
  <path class="fil1" d="M993.35 386.2c-3.48,43.77 -15.13,80.9 -33,101.99 -21.24,24.01 -48.98,27.84 -78.51,26.08 19.53,-9.29 43.73,-21.24 57.05,-46.18 14.17,-26.51 31.66,-54.36 54.46,-81.89zm-85.6 123.56c31.13,-15.61 53.55,-40.52 64.25,-73.64 -6.27,37.97 -26.26,64.93 -64.25,73.64z"/>
  <path class="fil1" d="M957.71 408.1c14.17,-20.24 23.9,-47.61 28.79,-82.78 3.36,-24.16 -5.76,-46.77 3.09,-83.72 13.51,25.91 25.23,55.6 23.19,91.41 -2.13,37.17 -25.46,60.09 -55.07,75.09zm19.94 -18.47c13.89,-27.05 22.66,-57.73 21.64,-95.37 8.45,35.02 6.05,69.35 -21.64,95.37z"/>
  <path class="fil1" d="M900.54 215.51c4.6,36.75 28.89,51.84 38.36,75.45 12,29.92 17.95,61.12 16.46,84.76 52.49,-56.85 -7.68,-129.44 -54.82,-160.21zm62.98 135.41c-0.68,-41.95 -14.52,-78.43 -36.79,-103.9 32.27,25.74 47.26,63.67 36.79,103.9z"/>
  <path class="fil1" d="M915.03 114.61c7.26,30.76 29.1,55.66 38.03,80.5 10.54,29.3 13.51,51.05 12.69,83.73 60.73,-83.51 -4.66,-127.05 -50.72,-164.23zm32.01 40.13c19.76,25.71 28.12,56.02 29.43,89.19 18.48,-32.36 -0.54,-69.6 -29.43,-89.19z"/>
  <path class="fil1" d="M919.51 164.93c16.18,14.55 43.35,36.15 31.36,84.58 -34.65,-75.17 -91.2,-70.99 -129.63,-113.3 32.76,9.58 68.82,8.81 98.27,28.72zm27.68 59.57c-11.28,-27.96 -33.91,-52.55 -76.98,-71.09 39.69,7.73 70.14,28.81 76.98,71.09z"/>
  <path class="fil1" d="M876.04 85.37c-34.23,-19.66 -75.02,-15.33 -107.37,-8.78 53.17,10.73 114.47,52.46 155.06,86.23 -6.15,-28.32 -15.86,-59.18 -47.69,-77.45zm32.44 54.5c-22.27,-26.06 -52.25,-46.68 -79.62,-59.01 19.31,2.61 46.87,9.72 64.17,31.93 6.49,8.35 9.42,18.4 15.45,27.08z"/>
  <path class="fil1" d="M702.9 74.17c16.91,0 33.78,0 50.64,0 1.21,-24.64 13.85,-42.49 31.65,-60.18 -21.89,1.38 -41.22,8.36 -51.15,21.32 -3.56,-14.81 -24.16,-21.47 -31.12,-35.31 -6.96,13.84 -27.59,20.5 -31.15,35.31 -9.93,-12.96 -29.26,-19.94 -51.15,-21.32 17.8,17.69 30.44,35.54 31.65,60.18 16.86,0 33.72,0 50.63,0z"/>
  <path class="fil1" d="M524.09 90.44c34.23,-19.66 75.02,-15.32 107.37,-8.77 -53.16,10.73 -114.46,52.46 -155.06,86.23 6.15,-28.32 15.86,-59.18 47.69,-77.46zm-32.44 54.51c22.27,-26.06 52.26,-46.68 79.62,-59.01 -19.31,2.61 -46.87,9.72 -64.16,31.93 -6.5,8.34 -9.42,18.4 -15.46,27.08z"/>
  <path class="fil2" d="M681.34 355.75l2.78 -4.02 -89.54 -63.71 1.68 -2.42 92.58 65.87 -4.46 6.44 -3.04 -2.16zm18.18 -9.13c0.36,0 0.72,0.01 1.07,0.02 -2.8,0.45 -5.44,1.42 -7.81,2.8l-1.7 -1.21c2.61,-1.05 5.46,-1.61 8.44,-1.61l0 0zm12.99 1.28l141.47 -110.44 19.82 -4.04 -0.36 0.77 -14.73 3.01 -143.45 111.99c-0.89,-0.49 -1.8,-0.92 -2.75,-1.29l0 0zm-9.34 44c-1.19,0.19 -2.4,0.29 -3.65,0.29 -12.59,0 -22.79,-10.2 -22.79,-22.79 0,-2.65 0.46,-5.19 1.29,-7.55l-96.4 -68.59 -10.73 -16.98 5.62 1.16 9.83 15.55 96.4 68.59c-0.83,2.37 -1.28,4.91 -1.28,7.56 0,12.23 9.63,22.2 21.71,22.76l0 0zm-1.86 -32.78c4.91,0.85 8.65,5.13 8.65,10.28 0,4.75 -3.16,8.76 -7.5,10.03 0.58,0.1 1.18,0.15 1.79,0.15 5.76,0 10.44,-4.67 10.44,-10.44 0,-5.77 -4.68,-10.44 -10.44,-10.44 -1.03,0 -2.01,0.15 -2.94,0.42zm158.28 -108.08l-4.62 -5.93 3.06 -2.39 6.29 8.06 -139.08 108.56 -1.66 -2.12 136.01 -106.18 0 0z"/>
  <path class="fil1" d="M596.26 285.6l-4.47 6.43 92.59 65.88 4.46 -6.44 -92.58 -65.87zm107.99 60.75c3.99,0 7.74,1.03 11.01,2.84l143.45 -111.99 19.82 -4.04 -8.69 18.3 -143.52 112.02c0.47,1.81 0.72,3.71 0.72,5.66 0,12.58 -10.21,22.79 -22.79,22.79 -12.59,0 -22.79,-10.21 -22.79,-22.79 0,-2.65 0.45,-5.19 1.28,-7.56l-96.4 -68.59 -10.73 -16.97 19.69 4.06 97.48 69.36c3.38,-1.96 7.28,-3.09 11.47,-3.09l0 0zm0 12.35c5.76,0 10.44,4.67 10.44,10.44 0,5.77 -4.68,10.44 -10.44,10.44 -5.77,0 -10.44,-4.67 -10.44,-10.44 0,-5.77 4.67,-10.44 10.44,-10.44zm160.07 -107.92l-6.29 -8.06 -139.08 108.57 6.29 8.05 139.08 -108.56z"/>
  <path class="fil1" d="M1072.63 401.02c-51.8,29.72 -50.21,-43.54 -17.9,-50.23 88.79,-18.4 48.48,103.78 8.44,143.71 -63.15,-2.56 -121.35,17.62 -146.81,87.47 40.99,-47.8 78.3,-68.6 125.96,-68.85 -35.41,28.61 -79.29,51.48 -115.88,71.19 59.5,-17.27 103.59,-33.3 144.41,-69.14 71.44,10.08 319.63,143.05 333.14,47.52 12.54,-88.64 -137.99,-64.52 -59.81,2.25 -11.07,-22.11 -20.85,-48.21 16.37,-45.27 34.39,2.72 36.89,45.48 12.07,57.06 -50.44,23.53 -192.77,-68.12 -282.81,-79.91 45.22,-48.01 65.57,-156.67 -11.21,-165.11 -91.34,-10.04 -66.87,138.13 -5.97,69.31z"/>
</svg>
